<svg width="50" height="50" viewBox="0 0 50 50" fill="none" xmlns="http://www.w3.org/2000/svg">
<g id="mingcute:left-fill" clip-path="url(#clip0_397_1370)">
<g id="Group">
<path id="Vector" fill-rule="evenodd" clip-rule="evenodd" d="M16.5416 27.2084C15.9564 26.6224 15.6277 25.8282 15.6277 25C15.6277 24.1719 15.9564 23.3776 16.5416 22.7917L28.3249 11.0042C28.9112 10.4182 29.7062 10.0892 30.535 10.0894C30.9455 10.0895 31.3518 10.1704 31.731 10.3275C32.1101 10.4847 32.4546 10.715 32.7447 11.0052C33.0349 11.2955 33.265 11.6401 33.422 12.0193C33.5789 12.3985 33.6597 12.8049 33.6596 13.2154C33.6595 13.6258 33.5785 14.0321 33.4214 14.4113C33.2642 14.7904 33.034 15.1349 32.7437 15.425L23.1708 25L32.7458 34.575C33.0444 34.8632 33.2826 35.2079 33.4466 35.5891C33.6105 35.9703 33.6969 36.3803 33.7007 36.7952C33.7045 37.2101 33.6256 37.6217 33.4687 38.0058C33.3117 38.3899 33.0799 38.7389 32.7866 39.0325C32.4933 39.326 32.1445 39.5582 31.7605 39.7156C31.3766 39.8729 30.9651 39.9521 30.5502 39.9487C30.1352 39.9453 29.7251 39.8593 29.3438 39.6957C28.9625 39.5321 28.6175 39.2942 28.3291 38.9959L16.5374 27.2084H16.5416Z" fill="black"/>
</g>
</g>
<defs>
<clipPath id="clip0_397_1370">
<rect width="50" height="50" fill="white"/>
</clipPath>
</defs>
</svg>
