<svg width="50" height="50" viewBox="0 0 50 50" fill="none" xmlns="http://www.w3.org/2000/svg">
<g clip-path="url(#clip0_4_269)">
<path d="M22.5802 20.1073H20.166L21.8731 21.8144L25.309 25.2502L25.2498 25.3094L21.8145 21.8732L20.1073 20.1656V22.5802V25.974H20.024V20.024H25.974V20.1073H22.5802ZM7.25 7.29167C7.25 7.28062 7.25439 7.27002 7.2622 7.2622C7.27002 7.25439 7.28062 7.25 7.29167 7.25H16.6667C16.6777 7.25 16.6883 7.25439 16.6961 7.2622C16.7039 7.27002 16.7083 7.28061 16.7083 7.29167V16.6667C16.7083 16.6777 16.7039 16.6883 16.6961 16.6961C16.6883 16.7039 16.6777 16.7083 16.6667 16.7083H7.29167C7.28062 16.7083 7.27002 16.7039 7.2622 16.6961C7.25439 16.6883 7.25 16.6777 7.25 16.6667V7.29167ZM33.2917 33.3333C33.2917 33.3223 33.2961 33.3117 33.3039 33.3039C33.3117 33.2961 33.3223 33.2917 33.3333 33.2917H42.7083C42.7194 33.2917 42.73 33.2961 42.7378 33.3039C42.7456 33.3117 42.75 33.3223 42.75 33.3333V42.7083C42.75 42.7194 42.7456 42.73 42.7378 42.7378C42.73 42.7456 42.7194 42.75 42.7083 42.75H33.3333C33.3223 42.75 33.3117 42.7456 33.3039 42.7378C33.2961 42.73 33.2917 42.7194 33.2917 42.7083V33.3333ZM28.3406 28.2819L30.2431 30.1844L30.1844 30.2431L28.2819 28.3406L28.3406 28.2819Z" stroke="black" stroke-width="2"/>
</g>
<defs>
<clipPath id="clip0_4_269">
<rect width="50" height="50" fill="white"/>
</clipPath>
</defs>
</svg>
