<svg width="50" height="50" viewBox="0 0 50 50" fill="none" xmlns="http://www.w3.org/2000/svg">
<g id="carbon:image">
<path id="Vector" d="M29.6875 21.875C30.6146 21.875 31.5209 21.6001 32.2917 21.085C33.0626 20.5699 33.6634 19.8379 34.0182 18.9813C34.373 18.1248 34.4658 17.1823 34.2849 16.273C34.1041 15.3637 33.6576 14.5285 33.0021 13.8729C32.3465 13.2174 31.5113 12.7709 30.602 12.5901C29.6927 12.4092 28.7502 12.502 27.8937 12.8568C27.0371 13.2116 26.3051 13.8124 25.79 14.5833C25.2749 15.3541 25 16.2604 25 17.1875C25 18.4307 25.4939 19.623 26.3729 20.5021C27.252 21.3811 28.4443 21.875 29.6875 21.875ZM29.6875 15.625C29.9965 15.625 30.2986 15.7166 30.5556 15.8883C30.8125 16.06 31.0128 16.304 31.1311 16.5896C31.2493 16.8751 31.2803 17.1892 31.22 17.4923C31.1597 17.7954 31.0109 18.0738 30.7924 18.2924C30.5738 18.5109 30.2954 18.6597 29.9923 18.72C29.6892 18.7803 29.3751 18.7493 29.0896 18.6311C28.804 18.5128 28.56 18.3125 28.3883 18.0556C28.2166 17.7986 28.125 17.4965 28.125 17.1875C28.125 16.7731 28.2896 16.3757 28.5826 16.0826C28.8757 15.7896 29.2731 15.625 29.6875 15.625Z" fill="black"/>
<path id="Vector_2" d="M40.625 6.25H9.375C8.5462 6.25 7.75134 6.57924 7.16529 7.16529C6.57924 7.75134 6.25 8.5462 6.25 9.375V40.625C6.25 41.4538 6.57924 42.2487 7.16529 42.8347C7.75134 43.4208 8.5462 43.75 9.375 43.75H40.625C41.4538 43.75 42.2487 43.4208 42.8347 42.8347C43.4208 42.2487 43.75 41.4538 43.75 40.625V9.375C43.75 8.5462 43.4208 7.75134 42.8347 7.16529C42.2487 6.57924 41.4538 6.25 40.625 6.25ZM40.625 40.625H9.375V31.25L17.1875 23.4375L25.9219 32.1719C26.5074 32.7539 27.2994 33.0806 28.125 33.0806C28.9506 33.0806 29.7426 32.7539 30.3281 32.1719L32.8125 29.6875L40.625 37.5V40.625ZM40.625 33.0781L35.0156 27.4687C34.4301 26.8867 33.6381 26.56 32.8125 26.56C31.9869 26.56 31.1949 26.8867 30.6094 27.4687L28.125 29.9531L19.3906 21.2187C18.8051 20.6367 18.0131 20.31 17.1875 20.31C16.3619 20.31 15.5699 20.6367 14.9844 21.2187L9.375 26.8281V9.375H40.625V33.0781Z" fill="black"/>
</g>
</svg>
