<svg width="20" height="20" viewBox="0 0 20 20" fill="none" xmlns="http://www.w3.org/2000/svg">
<g clip-path="url(#clip0_248_1744)">
<path d="M13.3538 5.42394V4.78288C13.3538 3.88531 13.3538 3.43652 13.1791 3.09369C13.0255 2.79213 12.7803 2.54696 12.4787 2.39331C12.1359 2.21863 11.6871 2.21863 10.7895 2.21863H9.50742C8.60984 2.21863 8.16106 2.21863 7.81823 2.39331C7.51667 2.54696 7.2715 2.79213 7.11784 3.09369C6.94317 3.43652 6.94317 3.88531 6.94317 4.78288V5.42394M8.54582 9.83125V13.8379M11.7511 9.83125V13.8379M2.93652 5.42394H17.3604M15.7578 5.42394V14.3988C15.7578 15.7452 15.7578 16.4184 15.4958 16.9326C15.2653 17.3849 14.8975 17.7527 14.4452 17.9832C13.9309 18.2452 13.2578 18.2452 11.9114 18.2452H8.38556C7.0392 18.2452 6.36602 18.2452 5.85178 17.9832C5.39944 17.7527 5.03168 17.3849 4.8012 16.9326C4.53918 16.4184 4.53918 15.7452 4.53918 14.3988V5.42394" stroke="#344054" stroke-width="1.60266" stroke-linecap="round" stroke-linejoin="round"/>
</g>
<defs>
<clipPath id="clip0_248_1744">
<rect width="19.2319" height="19.2319" fill="white" transform="translate(0.532227 0.615967)"/>
</clipPath>
</defs>
</svg>
