<svg width="20" height="20" viewBox="0 0 20 20" fill="none" xmlns="http://www.w3.org/2000/svg">
<path d="M7.02336 6.22565C6.81085 6.22565 6.60705 6.31007 6.45679 6.46033C6.30653 6.61059 6.22211 6.81439 6.22211 7.0269V13.4369C6.22211 13.6494 6.30653 13.8532 6.45679 14.0035C6.60705 14.1537 6.81085 14.2381 7.02336 14.2381H13.4334C13.6459 14.2381 13.8497 14.1537 13.9999 14.0035C14.1502 13.8532 14.2346 13.6494 14.2346 13.4369V13.0363C14.2346 12.7175 14.3612 12.4118 14.5866 12.1864C14.812 11.961 15.1177 11.8344 15.4365 11.8344C15.7552 11.8344 16.0609 11.961 16.2863 12.1864C16.5117 12.4118 16.6384 12.7175 16.6384 13.0363V13.4369C16.6384 14.2869 16.3007 15.1021 15.6996 15.7032C15.0986 16.3042 14.2834 16.6419 13.4334 16.6419H7.02336C6.17334 16.6419 5.35814 16.3042 4.75708 15.7032C4.15603 15.1021 3.81836 14.2869 3.81836 13.4369V7.0269C3.81836 6.17688 4.15603 5.36168 4.75708 4.76062C5.35814 4.15957 6.17334 3.8219 7.02336 3.8219H7.42398C7.74274 3.8219 8.04844 3.94853 8.27384 4.17392C8.49923 4.39932 8.62586 4.70502 8.62586 5.02377C8.62586 5.34253 8.49923 5.64823 8.27384 5.87363C8.04844 6.09902 7.74274 6.22565 7.42398 6.22565H7.02336ZM11.4302 6.22565C11.1115 6.22565 10.8058 6.09902 10.5804 5.87363C10.355 5.64823 10.2284 5.34253 10.2284 5.02377C10.2284 4.70502 10.355 4.39932 10.5804 4.17392C10.8058 3.94853 11.1115 3.8219 11.4302 3.8219H15.4365C15.7552 3.8219 16.0609 3.94853 16.2863 4.17392C16.5117 4.39932 16.6384 4.70502 16.6384 5.02377V9.03002C16.6384 9.34878 16.5117 9.65448 16.2863 9.87988C16.0609 10.1053 15.7552 10.2319 15.4365 10.2319C15.1177 10.2319 14.812 10.1053 14.5866 9.87988C14.3612 9.65448 14.2346 9.34878 14.2346 9.03002V7.9243L12.2796 9.87935C12.0517 10.0916 11.7504 10.2072 11.439 10.2017C11.1276 10.1962 10.8306 10.0701 10.6104 9.8499C10.3902 9.62969 10.264 9.33261 10.2585 9.02125C10.253 8.70988 10.3686 8.40853 10.5809 8.1807L12.536 6.22565H11.4302Z" fill="black"/>
</svg>
