<svg width="50" height="50" viewBox="0 0 50 50" fill="none" xmlns="http://www.w3.org/2000/svg">
<g id="catppuccin:pdf">
<path id="Vector" d="M8.74998 44.8125C14.4062 40.9062 18.1875 34.9375 20.9687 27.625C23.7812 20.3437 26.7812 14.0937 25.4687 6.90622C25.2812 5.78122 23.6875 4.62497 22.875 4.71872C19.6875 4.90622 19.9062 8.49997 20.2187 10.6562C20.9687 16 25.0937 22.2187 29.0937 28.0312C33.0625 33.875 36.3437 34.7812 40.9062 35.0937C42.4687 35.1875 44.8125 34.6562 45.1875 33.2812C47.5937 24.5312 17 31.5937 6.81248 39.7812C5.56248 40.8125 4.12498 42.9062 4.93748 44.3437C5.56248 45.4687 7.65623 45.5937 8.78123 44.8125H8.74998Z" stroke="#ED8796" stroke-linecap="round" stroke-linejoin="round"/>
</g>
</svg>
